<svg width="24" height="24" viewBox="0 0 24 24" fill="none" xmlns="http://www.w3.org/2000/svg">
<g id="Component 4">
<g clip-path="url(#clip0_178_877)">
<rect width="24" height="24" rx="6" fill="white"/>
<path id="mc-file-pdf" fill-rule="evenodd" clip-rule="evenodd" d="M2.88 0C1.28942 0 0 1.28942 0 2.88V21.12C0 22.7106 1.28942 24 2.88 24H21.12C22.7106 24 24 22.7106 24 21.12V2.88C24 1.28942 22.7106 0 21.12 0H2.88ZM4.4101 15.1399C4.50754 15.2066 4.66893 15.24 4.89426 15.24C5.11959 15.24 5.28098 15.2066 5.37842 15.1399C5.47586 15.0732 5.53676 14.9883 5.56112 14.8852C5.58548 14.776 5.59766 14.6638 5.59766 14.5486V13.3568H6.76694C7.02272 13.3568 7.28155 13.3113 7.54342 13.2203C7.80529 13.1233 8.04584 12.9838 8.26509 12.8018C8.49042 12.6138 8.67007 12.3803 8.80406 12.1013C8.94412 11.8223 9.01416 11.4978 9.01416 11.1279C9.01416 10.7518 8.94412 10.4243 8.80406 10.1453C8.67007 9.86634 8.49042 9.63283 8.26509 9.44481C8.04584 9.25073 7.80529 9.1082 7.54342 9.01723C7.28764 8.92624 7.03186 8.88076 6.77607 8.88076H4.9034C4.67807 8.88076 4.51668 8.91412 4.41924 8.98083C4.3218 9.04755 4.2609 9.13549 4.23654 9.24467C4.21218 9.34777 4.2 9.45694 4.2 9.57218V14.5395C4.2 14.6547 4.21218 14.7669 4.23654 14.8761C4.2609 14.9853 4.31875 15.0732 4.4101 15.1399ZM6.77607 11.974H5.59766V10.2636H6.76694C6.93746 10.2636 7.08666 10.3 7.21456 10.3728C7.34854 10.4456 7.45207 10.5456 7.52515 10.673C7.59823 10.8004 7.63477 10.949 7.63477 11.1188C7.63477 11.3189 7.58909 11.4827 7.49774 11.61C7.41248 11.7374 7.30286 11.8314 7.16889 11.8921C7.04099 11.9467 6.91006 11.974 6.77607 11.974ZM9.82425 15.1399C9.92169 15.2066 10.077 15.24 10.2901 15.24H11.9162C12.3668 15.24 12.781 15.1581 13.1585 14.9944C13.5422 14.8306 13.8772 14.6062 14.1634 14.3211C14.4496 14.03 14.6719 13.6904 14.8302 13.3022C14.9886 12.908 15.0678 12.4834 15.0678 12.0285C15.0678 11.5797 14.9886 11.1643 14.8302 10.7822C14.6719 10.4001 14.4496 10.0665 14.1634 9.78142C13.8772 9.49636 13.5453 9.27499 13.1677 9.1173C12.7901 8.95961 12.3821 8.88076 11.9436 8.88076H10.2993C10.0739 8.87469 9.91256 8.90502 9.81512 8.97174C9.71768 9.03845 9.65678 9.12639 9.63242 9.23557C9.60806 9.33867 9.59588 9.44785 9.59588 9.56308V14.5395C9.59588 14.6608 9.6111 14.776 9.64156 14.8852C9.672 14.9883 9.73291 15.0732 9.82425 15.1399ZM11.9436 13.8481H10.9844V10.2636H11.9344C12.2694 10.2636 12.5678 10.3424 12.8297 10.5001C13.0915 10.6518 13.2986 10.864 13.4509 11.137C13.6031 11.4099 13.6792 11.7192 13.6792 12.0649C13.6792 12.4106 13.6031 12.7169 13.4509 12.9838C13.2986 13.2507 13.0915 13.4629 12.8297 13.6206C12.5678 13.7722 12.2724 13.8481 11.9436 13.8481ZM15.9994 15.149C16.0968 15.2097 16.2552 15.24 16.4744 15.24C16.7058 15.24 16.8672 15.2097 16.9586 15.149C17.056 15.0823 17.1169 14.9974 17.1413 14.8943C17.1656 14.7851 17.1778 14.6729 17.1778 14.5577V12.6381H19.0414C19.1693 12.6381 19.2789 12.629 19.3702 12.6108C19.4677 12.5926 19.5438 12.5441 19.5986 12.4652C19.6534 12.3803 19.6808 12.2408 19.6808 12.0467C19.6808 11.8466 19.6534 11.7041 19.5986 11.6191C19.5438 11.5342 19.4677 11.4827 19.3702 11.4645C19.2789 11.4463 19.1723 11.4372 19.0505 11.4372H17.1778V10.2636H18.9766C19.0984 10.2636 19.2111 10.2545 19.3146 10.2363C19.4242 10.212 19.5125 10.1514 19.5795 10.0543C19.6465 9.95731 19.68 9.79962 19.68 9.58128C19.68 9.3508 19.6465 9.18705 19.5795 9.09001C19.5186 8.99296 19.4364 8.93534 19.3329 8.91715C19.2293 8.89289 19.1167 8.88076 18.9949 8.88076H16.5018C16.2339 8.88076 16.0481 8.92928 15.9446 9.02632C15.8411 9.12336 15.7893 9.30532 15.7893 9.57218V14.5486C15.7893 14.6638 15.7984 14.776 15.8167 14.8852C15.8411 14.9944 15.902 15.0823 15.9994 15.149Z" fill="#EA3434"/>
</g>
</g>
<defs>
<clipPath id="clip0_178_877">
<rect width="24" height="24" rx="6" fill="white"/>
</clipPath>
</defs>
</svg>
